<svg viewBox="0 0 40 40" xmlns:xlink="http://www.w3.org/1999/xlink" xmlns="http://www.w3.org/2000/svg" width="40" height="40" fill="none" pointerEvent="none" style="pointer-events: none;"><path fill="#FFFFFF" d="M30.99 13.236a1.11 1.11 0 0 0-1.496-.15 1.003 1.003 0 0 0-.195 1.43 10.965 10.965 0 0 1 2.548 7.045c.001 2.192-.659 4.337-1.899 6.177a11.726 11.726 0 0 1-5.091 4.196 12.303 12.303 0 0 1-6.65.868 12.071 12.071 0 0 1-6.076-2.737 11.313 11.313 0 0 1-3.55-5.465c-.61-2.112-.57-4.348.114-6.44a11.356 11.356 0 0 1 3.74-5.346 12.107 12.107 0 0 1 6.169-2.538l-1.459 1.2a1.008 1.008 0 0 0-.09 1.433 1.11 1.11 0 0 0 1.49.137l3.77-3.101a1.04 1.04 0 0 0 .278-.353 1 1 0 0 0-.277-1.217l-3.77-3.1a1.12 1.12 0 0 0-1.21-.165c-.13.062-.245.148-.339.254a.995.995 0 0 0-.128 1.165c.069.122.163.23.276.316l1.623 1.337a14.34 14.34 0 0 0-7.421 2.82 13.457 13.457 0 0 0-4.61 6.253 12.916 12.916 0 0 0-.299 7.653 13.345 13.345 0 0 0 4.107 6.567 14.248 14.248 0 0 0 7.18 3.346c2.68.424 5.432.09 7.919-.96 2.486-1.051 4.6-2.774 6.085-4.957a13.045 13.045 0 0 0 2.273-7.342c.012-3.023-1.05-5.96-3.012-8.326Z"></path><path fill="#FFFFFF" d="M24.029 12.931a1.107 1.107 0 0 0 1.52.112l3.77-3.1a1.04 1.04 0 0 0 .277-.353 1 1 0 0 0-.278-1.217l-3.77-3.1a1.12 1.12 0 0 0-1.21-.165c-.129.062-.244.148-.338.254a.993.993 0 0 0-.128 1.165c.069.122.163.23.276.316l2.814 2.316-2.815 2.316a1.007 1.007 0 0 0-.118 1.457ZM15.159 24.987a.914.914 0 0 0-.641.238.816.816 0 0 0 0 1.214.914.914 0 0 0 .64.238h2.64a.914.914 0 0 0 .641-.239.816.816 0 0 0 0-1.214.887.887 0 0 0-.64-.237h-.444v-7.178a.819.819 0 0 0-.125-.434.866.866 0 0 0-.34-.31.912.912 0 0 0-.903.04l-1.32.846a.843.843 0 0 0-.363.523.816.816 0 0 0 .114.619c.12.184.308.317.527.372.22.054.452.025.65-.08v5.602h-.436ZM22.2 16.964c-.583 0-1.143.222-1.556.618A2.069 2.069 0 0 0 20 19.075v5.489c0 .56.232 1.097.644 1.493.413.396.973.618 1.556.618h1.32c.29 0 .576-.055.843-.16a2.21 2.21 0 0 0 .714-.458c.204-.196.366-.429.476-.685.111-.256.168-.53.168-.808v-5.49c0-.277-.057-.551-.168-.807a2.105 2.105 0 0 0-.476-.685 2.208 2.208 0 0 0-.714-.458 2.281 2.281 0 0 0-.842-.16H22.2Zm1.76 2.11v5.49a.417.417 0 0 1-.13.3.453.453 0 0 1-.313.125H22.2a.453.453 0 0 1-.313-.124.417.417 0 0 1-.13-.301v-5.49c0-.112.047-.22.13-.3a.453.453 0 0 1 .313-.125h1.32c.118.001.23.046.312.126.082.08.129.188.129.3Z"></path></svg>
