<svg viewBox="0 0 40 40" xmlns:xlink="http://www.w3.org/1999/xlink" xmlns="http://www.w3.org/2000/svg" width="40" height="40" fill="none" pointerEvent="none" style="pointer-events: none;"><path fill="#FFFFFF" d="M9.015 13.232a1.109 1.109 0 0 1 1.475-.125 1.001 1.001 0 0 1 .21 1.407 10.97 10.97 0 0 0-2.547 7.045c0 2.192.66 4.336 1.9 6.176a11.723 11.723 0 0 0 5.09 4.195c2.083.898 4.391 1.2 6.648.868a12.065 12.065 0 0 0 6.072-2.738 11.314 11.314 0 0 0 3.55-5.465c.609-2.112.569-4.348-.115-6.44a11.357 11.357 0 0 0-3.74-5.346 12.1 12.1 0 0 0-6.165-2.538l1.454 1.2a1.006 1.006 0 0 1 .118 1.457c-.186.208-.45.337-.735.358a1.106 1.106 0 0 1-.783-.245L17.68 9.94a1.04 1.04 0 0 1-.278-.354 1 1 0 0 1 .278-1.217l3.768-3.101a1.09 1.09 0 0 1 .784-.245c.14.01.278.048.404.11.126.06.239.145.33.249a.995.995 0 0 1 .142 1.14 1.04 1.04 0 0 1-.26.317l-1.622 1.337a14.335 14.335 0 0 1 7.422 2.818 13.46 13.46 0 0 1 4.611 6.253c.873 2.47.978 5.13.303 7.655a13.348 13.348 0 0 1-4.106 6.57 14.243 14.243 0 0 1-7.178 3.35c-2.68.423-5.432.09-7.919-.961a13.867 13.867 0 0 1-6.084-4.958A13.051 13.051 0 0 1 6 21.559c-.01-3.024 1.053-5.961 3.015-8.328Z"></path><path fill="#FFFFFF" d="M16.02 12.927a1.128 1.128 0 0 1-1.536.112l-3.812-3.101a1.032 1.032 0 0 1-.28-.352.991.991 0 0 1 0-.866c.065-.136.16-.256.28-.352l3.813-3.102a1.141 1.141 0 0 1 1.083-.21c.182.058.346.163.472.303a.991.991 0 0 1 .193 1.035 1.033 1.033 0 0 1-.333.442l-2.845 2.318 2.847 2.316c.108.087.197.195.262.316a.996.996 0 0 1-.144 1.14ZM15.158 24.985a.912.912 0 0 0-.64.238.816.816 0 0 0 0 1.214.914.914 0 0 0 .64.238h2.64a.914.914 0 0 0 .64-.238.816.816 0 0 0 0-1.214.912.912 0 0 0-.64-.238h-.444v-7.18a.82.82 0 0 0-.125-.433.866.866 0 0 0-.34-.311.91.91 0 0 0-.903.041l-1.32.846a.845.845 0 0 0-.363.523.817.817 0 0 0 .114.619.88.88 0 0 0 .528.372c.219.054.451.025.649-.08v5.603h-.436ZM22.197 16.96c-.583 0-1.143.223-1.555.619a2.069 2.069 0 0 0-.644 1.493v5.49c0 .56.231 1.097.644 1.493.412.396.972.619 1.555.619h1.32c.29 0 .576-.055.843-.161a2.21 2.21 0 0 0 .713-.458c.204-.196.367-.429.477-.685.11-.256.168-.53.168-.808v-5.49c0-.278-.057-.552-.168-.808a2.107 2.107 0 0 0-.477-.685 2.208 2.208 0 0 0-.713-.458 2.28 2.28 0 0 0-.842-.16h-1.32Zm1.76 2.112v5.49a.417.417 0 0 1-.13.301.453.453 0 0 1-.313.125h-1.317a.453.453 0 0 1-.313-.125.417.417 0 0 1-.13-.3v-5.491c0-.113.047-.221.13-.301a.453.453 0 0 1 .313-.125h1.32c.118.001.23.046.312.126.082.08.128.188.128.3Z"></path></svg>
