<svg viewBox="0 0 40 40" xmlns:xlink="http://www.w3.org/1999/xlink" xmlns="http://www.w3.org/2000/svg" width="40" height="40" fill="none" color="#ffffff"><path fill="#FFFFFF" d="M26.982 21.097a1.094 1.094 0 0 1-1.093 1.094H24.83a1.094 1.094 0 1 1 0-2.185h1.058a1.094 1.094 0 0 1 1.093 1.094v-.003Zm-5.96-1.094h-7.474a1.094 1.094 0 1 0 0 2.185h7.473a1.094 1.094 0 0 0 0-2.185Zm5.431-6.455H13.548a1.094 1.094 0 0 0 0 2.185h12.905a1.094 1.094 0 1 0 0-2.185ZM34 10.376v14.979a4.382 4.382 0 0 1-4.375 4.375h-11.35l-3.508 3.51a2.619 2.619 0 0 1-4.464-1.85v-1.66A4.379 4.379 0 0 1 6 25.355v-14.98A4.381 4.381 0 0 1 10.376 6h19.252A4.379 4.379 0 0 1 34 10.376Zm-2.184 0a2.19 2.19 0 0 0-2.184-2.185H10.375a2.19 2.19 0 0 0-2.184 2.185v14.979a2.19 2.19 0 0 0 2.184 2.184 2.116 2.116 0 0 1 2.115 2.115v1.737a.428.428 0 0 0 .728.302l3.53-3.53a2.104 2.104 0 0 1 1.495-.62h11.382a2.19 2.19 0 0 0 2.184-2.185V10.376h.006Z"></path></svg>
