<svg viewBox="0 0 40 40" xmlns:xlink="http://www.w3.org/1999/xlink" xmlns="http://www.w3.org/2000/svg" width="40" height="40" fill="none" color="#ffffff"><path fill="#FFFFFF" d="M32.363 15.664H21.992V7.636A2.64 2.64 0 0 0 19.356 5H7.636A2.64 2.64 0 0 0 5 7.636v10.545a2.642 2.642 0 0 0 2.192 2.6L6.77 23.31a.879.879 0 0 0 1.44.812l3.854-3.302h5.945v8.027a2.64 2.64 0 0 0 2.636 2.636h7.292l3.857 3.305a.877.877 0 0 0 1.438-.811l-.424-2.528a2.641 2.641 0 0 0 2.192-2.6V18.302a2.64 2.64 0 0 0-2.636-2.636l-.001-.001Zm-20.625 3.399a.879.879 0 0 0-.572.212L8.9 21.215l.189-1.129a.878.878 0 0 0-.867-1.023h-.587a.879.879 0 0 1-.878-.882V7.636a.88.88 0 0 1 .878-.878h11.717a.88.88 0 0 1 .879.878v10.545a.88.88 0 0 1-.879.88l-7.615.002Zm21.504 9.784a.88.88 0 0 1-.88.879h-.585a.878.878 0 0 0-.867 1.023l.19 1.13-2.266-1.941a.879.879 0 0 0-.573-.212h-7.616a.88.88 0 0 1-.88-.879v-8.059a2.64 2.64 0 0 0 2.227-2.607v-.761h10.37a.88.88 0 0 1 .88.878v10.549Z"></path><path fill="#FFFFFF" d="m27.486 19.848-.01-.024a1.034 1.034 0 0 0-.96-.645 1.034 1.034 0 0 0-.96.646l-.008.02-2.64 6.931a.88.88 0 0 0 1.642.626l.442-1.16h3.03l.436 1.157a.879.879 0 0 0 1.645-.62l-2.617-6.931Zm-1.825 4.637.852-2.24.844 2.24h-1.696ZM17.16 15.275a4.379 4.379 0 1 0-1.231 1.254l.462.462a.879.879 0 0 0 1.24-1.242l-.472-.474Zm-3.677.245a2.625 2.625 0 1 1 2.386-1.535l-.476-.476a.879.879 0 0 0-1.243 1.243l.496.496c-.361.18-.76.273-1.163.272Z"></path></svg>
