<svg xmlns:xlink="http://www.w3.org/1999/xlink" xmlns="http://www.w3.org/2000/svg" width="25" height="30" viewBox="0 0 25 32" fill="none"><path fill-rule="evenodd" clip-rule="evenodd" d="M17.8092 3.38739L18.7966 1.5487C19.5652 0.117637 21.3461 -0.418176 22.7743 0.351949C22.7908 0.360824 22.8073 0.369699 22.8237 0.378574C24.252 1.14864 24.7868 2.93301 24.0182 4.36407L22.6495 6.91264V29.2353C22.6495 30.7624 21.4139 32.0004 19.8897 32.0004C16.8698 32.0004 5.77965 32.0004 2.75974 32.0004C1.23559 32.0004 0 30.7624 0 29.2353V6.15251C0 4.62539 1.23559 3.38739 2.75974 3.38739H17.8092ZM16.735 5.38739H2.75974C2.338 5.38739 1.9961 5.72995 1.9961 6.15251C1.9961 9.81951 1.9961 25.5683 1.9961 29.2353C1.9961 29.6578 2.338 30.0004 2.75974 30.0004C5.77965 30.0004 16.8698 30.0004 19.8897 30.0004C20.3115 30.0004 20.6534 29.6578 20.6534 29.2353V10.6292L18.886 13.9199C18.7037 14.2594 18.4273 14.5389 18.0901 14.7247L16.5277 15.5856C15.9344 15.9126 15.2162 15.9158 14.6199 15.5944C14.0236 15.2729 13.6307 14.6704 13.5762 13.9943L13.4325 12.2134C13.4016 11.8291 13.482 11.4441 13.6644 11.1046L16.735 5.38739ZM4.96212 25.4511H17.6249C18.1758 25.4511 18.6229 25.0029 18.6229 24.4511C18.6229 23.8991 18.1758 23.4511 17.6249 23.4511H4.96212C4.41132 23.4511 3.96407 23.8991 3.96407 24.4511C3.96407 25.0029 4.41132 25.4511 4.96212 25.4511ZM5.0245 22.0629H17.6873C18.2381 22.0629 18.6853 21.6148 18.6853 21.0629C18.6853 20.5109 18.2381 20.0629 17.6873 20.0629H5.0245C4.4737 20.0629 4.02645 20.5109 4.02645 21.0629C4.02645 21.6148 4.4737 22.0629 5.0245 22.0629ZM4.96212 18.6747H13.2584C13.8093 18.6747 14.2565 18.2266 14.2565 17.6747C14.2565 17.1228 13.8093 16.6747 13.2584 16.6747H4.96212C4.41132 16.6747 3.96407 17.1228 3.96407 17.6747C3.96407 18.2266 4.41132 18.6747 4.96212 18.6747ZM15.4222 12.0523C15.4222 12.0523 19.2319 4.95876 20.5544 2.49645C20.8006 2.03807 21.371 1.86645 21.8285 2.11314C21.8449 2.12201 21.8614 2.13089 21.8778 2.13976C22.3353 2.38639 22.5066 2.95795 22.2605 3.41632C20.938 5.87864 17.1282 12.9722 17.1282 12.9722L15.5658 13.8332L15.4222 12.0523Z" fill="#FFFFFF"></path></svg>
