<svg xmlns:xlink="http://www.w3.org/1999/xlink" xmlns="http://www.w3.org/2000/svg" width="40" height="40" viewBox="0 0 40 40" fill="none">
<path d="M32.4446 4.00695H7.55537C6.67392 3.94626 5.80698 4.28497 5.14177 4.94992C4.47656 5.61488 4.06645 6.55273 4 7.56096L4 32.439C4.06645 33.4473 4.47656 34.3851 5.14177 35.0501C5.80698 35.715 6.67392 36.0537 7.55537 35.9931H32.4446C33.3261 36.0537 34.193 35.715 34.8582 35.0501C35.5234 34.3851 35.9335 33.4473 36 32.439V7.56096C35.9335 6.55273 35.5234 5.61488 34.8582 4.94992C34.193 4.28497 33.3261 3.94626 32.4446 4.00695ZM14.6669 28.885H11.1116V16.4465H14.6669V28.885ZM21.7785 28.885H18.2223V11.115H21.7777L21.7785 28.885ZM28.8901 28.885H25.3339V21.777H28.8892L28.8901 28.885Z" fill="white"/>
</svg>
