<svg xmlns:xlink="http://www.w3.org/1999/xlink" width="24" height="24" viewBox="0 0 24 24" fill="none" xmlns="http://www.w3.org/2000/svg"><path fill-rule="evenodd" clip-rule="evenodd" d="M12 3C12.2408 3.00001 12.4618 3.1338 12.5742 3.34763L15.3076 8.54627L21.4386 9.38779C21.6884 9.42209 21.8959 9.59855 21.9707 9.8404C22.0456 10.0823 21.9742 10.3457 21.7877 10.5162L17.3787 14.5472L18.4171 20.2301C18.4614 20.4724 18.3659 20.7192 18.1703 20.8678C17.9747 21.0165 17.7124 21.0418 17.4922 20.9332L11.9993 18.2237L6.50649 20.9332C6.28629 21.0418 6.02395 21.0165 5.82835 20.8678C5.63274 20.7192 5.53726 20.4724 5.58154 20.2301L6.61992 14.5472L2.21215 10.5155C2.02573 10.345 1.95444 10.0815 2.0293 9.8397C2.10416 9.59788 2.31163 9.42145 2.56145 9.38716L8.69238 8.54563L11.4258 3.3476C11.5383 3.13378 11.7593 2.99999 12 3ZM12 5.04871L9.68497 9.45101C9.5872 9.63695 9.40615 9.76413 9.19871 9.79261L4.11367 10.4906L7.7609 13.8266C7.92667 13.9782 8.00283 14.205 7.96236 14.4265L7.09173 19.1913L11.7131 16.9117C11.8936 16.8227 12.105 16.8227 12.2856 16.9117L16.9069 19.1913L16.0363 14.4265C15.9958 14.2049 16.072 13.9781 16.2379 13.8265L19.8859 10.4912L14.8013 9.79324C14.5938 9.76477 14.4128 9.63757 14.315 9.45162L12 5.04871Z" fill="#FFFFFF"></path></svg>
