<svg viewBox="0 0 40 40" xmlns:xlink="http://www.w3.org/1999/xlink" xmlns="http://www.w3.org/2000/svg" width="40" height="40" fill="none"><path stroke="#FFFFFF" stroke-linecap="round" stroke-linejoin="round" stroke-width="2px" d="M29.858 20a9.885 9.885 0 0 0-.151-1.693l3.177-2.666-2.667-4.638-3.896 1.438a9.831 9.831 0 0 0-2.933-1.716l-.719-4.058h-5.333l-.719 4.058a9.831 9.831 0 0 0-2.933 1.716l-3.896-1.415-2.667 4.638 3.177 2.666a9.28 9.28 0 0 0 0 3.386l-3.177 2.643 2.667 4.638 3.896-1.426a9.843 9.843 0 0 0 2.933 1.704l.719 4.058h5.333l.719-4.058a9.845 9.845 0 0 0 2.945-1.692l3.896 1.426 2.666-4.638-3.177-2.667a9.88 9.88 0 0 0 .14-1.704v0Z" fill="none"></path><path stroke="#FFFFFF" stroke-linecap="round" stroke-linejoin="round" stroke-width="2px" d="M20.003 25.217a5.217 5.217 0 1 0 0-10.434 5.217 5.217 0 0 0 0 10.434Z" fill="none"></path></svg>
